<svg xmlns="http://www.w3.org/2000/svg" viewBox="0 0 24 24" fill="currentColor" stroke="currentColor" stroke-width="2" stroke-linecap="round" stroke-linejoin="round" opacity="0.5">
<path d="M9 12a1 1 0 1 0 2 0 1 1 0 1 0-2 0m4 0a1 1 0 1 0 2 0 1 1 0 1 0-2 0"></path><path d="M15.5 17c0 1-1.5 3-2 3-1.5 0-2-2-2-3m-5.5-11.5c1.5-.5 2-.5 3-.5 1.5 0 2.5 0 3 .5 1.5.5 2 1.5 3 2.5s1.5 2.5 1.5 4.5-1 3-1.5 4.5-1.5 2-3 2.5c-.5.5-1.5.5-3 .5s-2.5 0-3-.5-2-1-3-2.5S4 14 4 12s1-3 1.5-4.5 1.5-2 3-2.5z"></path>
</svg>